<svg width="142" height="42" viewBox="0 0 142 42" fill="none" xmlns="http://www.w3.org/2000/svg">
<path d="M27.1707 -0.000131607C12.1641 -0.000131607 0 4.65203 0 10.389C0 12.2823 1.32948 14.0552 3.64282 15.5825C8.33984 12.477 17.113 10.389 27.1677 10.389V-0.000131607H27.1707Z" fill="white"/>
<path d="M50.6953 25.9722C53.0086 24.4449 54.3381 22.6719 54.3381 20.7786C54.3381 15.0417 42.175 10.3895 27.1674 10.3895V20.7786C37.2221 20.7786 45.9952 22.8697 50.6922 25.9722H50.6953Z" fill="white"/>
<path d="M3.64282 15.5824C1.32948 17.1127 0 18.8826 0 20.7759C0 26.5129 12.1641 31.165 27.1707 31.165V20.7759C17.116 20.7759 8.3429 18.6848 3.64587 15.5824H3.64282Z" fill="white"/>
<path d="M54.3411 31.1651C54.3411 29.2718 53.0116 27.4988 50.6983 25.9715C46.0013 29.0771 37.2281 31.1651 27.1744 31.1651V41.5542C42.178 41.5542 54.3442 36.9031 54.3442 31.1651H54.3411Z" fill="white"/>
<path d="M80.0984 20.259C83.0418 20.259 83.9451 19.7441 83.9451 17.653C83.9451 15.562 83.0693 15.0185 80.0749 15.0185H71.1172V20.2559H80.0984V20.259ZM65.9033 10.7365H80.6132C87.1699 10.7365 89.1315 12.4921 89.1315 16.9832C89.1315 20.001 88.2557 21.6527 85.7762 22.4296V22.5326C88.5371 22.972 89.155 23.8233 89.155 27.3326V30.8184H83.942V28.1084C83.942 25.5025 83.5026 24.5207 79.7099 24.5207H71.1172V30.8184H65.9033V10.7365Z" fill="white"/>
<path d="M93.687 29.7894C92.2913 28.8831 91.9028 27.4842 91.9028 25.0231V24.4786H97.1718V24.5541C97.1718 25.7704 97.3543 26.2363 98.0486 26.6013C98.746 26.9633 100.372 27.1182 103.964 27.1182C108.095 27.1182 109.311 26.9357 109.958 26.6258C110.655 26.2883 110.835 25.9019 110.835 24.9436C110.835 24.0617 110.601 23.5723 109.982 23.2623C109.363 22.9514 108.071 22.9004 101.561 22.7454C97.4818 22.6414 95.3366 22.2795 94.0449 21.4771C92.6247 20.5983 92.0823 19.1465 92.0823 16.5313C92.0823 13.9152 92.8551 12.5164 94.2784 11.661C95.8281 10.7271 98.5125 10.3142 103.731 10.3142C108.432 10.3142 111.739 10.6516 113.467 11.765C114.914 12.6989 115.199 14.2496 115.199 16.4273V16.7893H109.93V16.7658C109.93 15.8319 109.827 15.263 109.13 14.9256C108.381 14.5636 106.961 14.4321 103.655 14.4321C100.011 14.4321 98.7735 14.5636 98.1281 14.8736C97.4298 15.211 97.2748 15.7279 97.2748 16.4518C97.2748 17.3857 97.6123 17.7721 98.0761 18.0066C98.592 18.2645 99.4444 18.3675 104.403 18.4715C110.033 18.5745 112.567 18.861 114.09 19.7918C115.537 20.6707 116.001 22.304 116.001 24.7641C116.001 27.4078 115.331 28.8831 113.908 29.7894C112.487 30.6958 110.033 31.2402 103.809 31.2402C97.5847 31.2402 95.3122 30.8508 93.684 29.7894H93.687Z" fill="white"/>
<path d="M132.765 21.0604C135.921 21.0604 136.913 20.466 136.913 18.0415C136.913 15.6171 135.921 15.0227 132.765 15.0227H124.522V21.0604H132.765ZM119.383 10.7365H132.995C139.966 10.7365 142 12.4911 142 18.0415C142 23.5919 139.966 25.3465 132.995 25.3465H124.525V30.8174H119.387V10.7365H119.383Z" fill="white"/>
</svg>
