<svg width="46" height="47" viewBox="0 0 46 47" fill="none" xmlns="http://www.w3.org/2000/svg">
<path d="M0 23.8219C0 11.1194 10.2975 0.821899 23 0.821899C35.7025 0.821899 46 11.1194 46 23.8219C46 36.5244 35.7025 46.8219 23 46.8219C10.2975 46.8219 0 36.5244 0 23.8219Z" fill="#F7F7FE"/>
<g clip-path="url(#clip0_731_14801)">
<path d="M20.9981 27.1518L20.7653 27.599L20.7554 27.6171C20.215 28.5359 19.2169 29.1064 18.15 29.1064C17.6148 29.1064 17.0861 28.9622 16.6226 28.6893C15.9272 28.2803 15.4326 27.6255 15.2305 26.8445C15.2216 26.8113 15.2143 26.7778 15.2068 26.7443L14.8218 29.6997H21.3324L20.9981 27.1518Z" fill="#2E67F8"/>
<path d="M21.383 16.4379L15.8916 24.7573C15.1575 26.0055 15.5742 27.6138 16.8233 28.3479C18.072 29.0824 19.6796 28.6653 20.4141 27.4163L24.1413 20.2515L22.0867 18.2984C21.5509 17.746 21.3685 17.129 21.383 16.4379ZM19.0547 26.6169C18.7619 27.1152 18.1206 27.2813 17.6226 26.9888C17.1244 26.6954 16.958 26.0547 17.2511 25.5564C17.5439 25.0581 18.1852 24.8921 18.6831 25.1849C19.1811 25.478 19.3478 26.119 19.0547 26.6169Z" fill="#2E67F8"/>
<path d="M21.5147 30.0562H14.6851C14.22 30.0562 13.8433 30.4332 13.8433 30.8983V33.4219H22.3562V30.8983C22.3562 30.4332 21.9794 30.0562 21.5147 30.0562Z" fill="#2E67F8"/>
<path d="M30.2757 21.1871C30.5451 21.1871 30.8038 21.2342 31.0437 21.3206L25.7188 14.9548C24.8696 14.0321 23.4329 13.9728 22.5105 14.8223C21.5878 15.6711 21.5288 17.1078 22.378 18.0302L28.0012 23.3724C28.0492 22.1593 29.0507 21.1871 30.2757 21.1871ZM24.6342 17.1296C24.2827 17.4532 23.7353 17.4301 23.4117 17.0786C23.0875 16.727 23.1103 16.1796 23.4621 15.856C23.8137 15.5318 24.3611 15.5546 24.6853 15.9065C25.0089 16.258 24.9861 16.8054 24.6342 17.1296Z" fill="#2E67F8"/>
<path d="M29.5874 27.9179L30.3216 28.7438L31.0554 27.9179V26.5585H29.5874V27.9179Z" fill="#2E67F8"/>
<path d="M30.2753 21.5829C29.2367 21.5829 28.3945 22.4247 28.3945 23.4637V26.17H32.1558V23.4637C32.1558 22.4247 31.3143 21.5829 30.2753 21.5829ZM30.2753 24.1404C29.8697 24.1404 29.5412 23.8116 29.5412 23.4062C29.5412 23.0005 29.8697 22.6717 30.2753 22.6717C30.6807 22.6717 31.0098 23.0005 31.0098 23.4062C31.0098 23.8115 30.6807 24.1404 30.2753 24.1404Z" fill="#2E67F8"/>
</g>
<defs>
<clipPath id="clip0_731_14801">
<rect width="19.1999" height="19.1999" fill="white" transform="translate(13.3999 14.222)"/>
</clipPath>
</defs>
</svg>
