<svg width="46" height="47" viewBox="0 0 46 47" fill="none" xmlns="http://www.w3.org/2000/svg">
<path d="M0 23.8219C0 11.1194 10.2975 0.821899 23 0.821899C35.7025 0.821899 46 11.1194 46 23.8219C46 36.5244 35.7025 46.8219 23 46.8219C10.2975 46.8219 0 36.5244 0 23.8219Z" fill="#F7F7FE"/>
<path fill-rule="evenodd" clip-rule="evenodd" d="M13.3999 21.9121V14.222H21.0901V15.2151H14.393V21.9121H13.3999Z" fill="#2E67F8"/>
<path fill-rule="evenodd" clip-rule="evenodd" d="M14.8386 19.754V15.6607H18.9319V16.6538H15.8317V19.754H14.8386Z" fill="#2E67F8"/>
<path d="M30.168 23.8282C30.168 27.8047 26.9445 31.0282 22.968 31.0282C18.9916 31.0282 15.7681 27.8047 15.7681 23.8282C15.7681 19.8518 18.9916 16.6283 22.968 16.6283C26.9445 16.6283 30.168 19.8518 30.168 23.8282ZM17.7919 23.8282C17.7919 26.687 20.1093 29.0044 22.968 29.0044C25.8267 29.0044 28.1442 26.687 28.1442 23.8282C28.1442 20.9695 25.8267 18.6521 22.968 18.6521C20.1093 18.6521 17.7919 20.9695 17.7919 23.8282Z" fill="#2E67F8"/>
<path fill-rule="evenodd" clip-rule="evenodd" d="M32.5998 25.7317V33.4219H24.9097V32.4288H31.6067V25.7317H32.5998Z" fill="#2E67F8"/>
<path fill-rule="evenodd" clip-rule="evenodd" d="M31.1611 27.8898V31.9832H27.0678V30.9901H30.168V27.8898H31.1611Z" fill="#2E67F8"/>
</svg>
