<svg width="38" height="39" viewBox="0 0 38 39" fill="none" xmlns="http://www.w3.org/2000/svg">
<path d="M0 19.8218C0 9.32837 8.50659 0.821777 19 0.821777C29.4934 0.821777 38 9.32837 38 19.8218C38 30.3152 29.4934 38.8218 19 38.8218C8.50659 38.8218 0 30.3152 0 19.8218Z" fill="#2E67F8"/>
<path d="M18.0907 13.8592C14.2128 13.8592 11.0693 15.0614 11.0693 16.544C11.0693 17.0332 11.4129 17.4914 12.0107 17.886C13.2245 17.0835 15.4916 16.544 18.0899 16.544V13.8592H18.0907Z" fill="white"/>
<path d="M24.1699 20.5706C24.7677 20.1759 25.1112 19.7178 25.1112 19.2285C25.1112 17.746 21.9681 16.5438 18.0898 16.5438V19.2285C20.6881 19.2285 22.9553 19.7689 24.1691 20.5706H24.1699Z" fill="white"/>
<path d="M12.0107 17.8863C11.4129 18.2817 11.0693 18.7391 11.0693 19.2284C11.0693 20.7109 14.2128 21.9131 18.0907 21.9131V19.2284C15.4924 19.2284 13.2253 18.688 12.0115 17.8863H12.0107Z" fill="white"/>
<path d="M25.1121 21.913C25.1121 21.4237 24.7686 20.9656 24.1708 20.5709C22.957 21.3734 20.6898 21.913 18.0918 21.913V24.5977C21.969 24.5977 25.1129 23.3958 25.1129 21.913H25.1121Z" fill="white"/>
</svg>
