<svg width="46" height="46" viewBox="0 0 46 46" fill="none" xmlns="http://www.w3.org/2000/svg">
<g filter="url(#filter0_b_108_5979)">
<path d="M0 23C0 10.2975 10.2975 0 23 0C35.7025 0 46 10.2975 46 23C46 35.7025 35.7025 46 23 46C10.2975 46 0 35.7025 0 23Z" fill="#F7F7FE"/>
<mask id="mask0_108_5979" style="mask-type:alpha" maskUnits="userSpaceOnUse" x="13" y="13" width="20" height="20">
<rect x="13.4" y="13.4" width="19.1999" height="19.1999" fill="#D9D9D9"/>
</mask>
<g mask="url(#mask0_108_5979)">
<path d="M22.2 30.7799V23.46L15.8 19.76V26.18C15.8 26.4733 15.87 26.74 16.01 26.9799C16.15 27.2199 16.3467 27.4133 16.6 27.5599L22.2 30.7799ZM23.8 30.7799L29.4 27.5599C29.6533 27.4133 29.85 27.2199 29.99 26.9799C30.13 26.74 30.2 26.4733 30.2 26.18V19.76L23.8 23.46V30.7799ZM26.98 19.78L29.34 18.4L23.8 15.22C23.5467 15.0733 23.28 15 23 15C22.72 15 22.4534 15.0733 22.2 15.22L20.62 16.12L26.98 19.78ZM23 22.08L25.38 20.72L19.04 17.04L16.64 18.42L23 22.08Z" fill="#2E67F8"/>
</g>
</g>
<defs>
<filter id="filter0_b_108_5979" x="-3.06667" y="-3.06667" width="52.1333" height="52.1333" filterUnits="userSpaceOnUse" color-interpolation-filters="sRGB">
<feFlood flood-opacity="0" result="BackgroundImageFix"/>
<feGaussianBlur in="BackgroundImageFix" stdDeviation="1.53333"/>
<feComposite in2="SourceAlpha" operator="in" result="effect1_backgroundBlur_108_5979"/>
<feBlend mode="normal" in="SourceGraphic" in2="effect1_backgroundBlur_108_5979" result="shape"/>
</filter>
</defs>
</svg>
