<svg width="157" height="46" viewBox="0 0 157 46" fill="none" xmlns="http://www.w3.org/2000/svg">
<path d="M30.0409 -0.00580406C13.4491 -0.00580406 0 5.13778 0 11.4807C0 13.574 1.46992 15.5343 4.02762 17.2229C9.22081 13.7893 18.9207 11.4807 30.0375 11.4807V-0.00580406H30.0409Z" fill="#2E67F8"/>
<path d="M56.0505 28.7098C58.6082 27.0212 60.0781 25.061 60.0781 22.9677C60.0781 16.6247 46.6302 11.4811 30.0372 11.4811V22.9677C41.1541 22.9677 50.8539 25.2797 56.0471 28.7098H56.0505Z" fill="#2E67F8"/>
<path d="M4.02762 17.2228C1.46992 18.9148 0 20.8717 0 22.965C0 29.308 13.4491 34.4515 30.0409 34.4515V22.965C18.9241 22.965 9.22419 20.653 4.031 17.2228H4.02762Z" fill="#2E67F8"/>
<path d="M60.0814 34.4516C60.0814 32.3583 58.6115 30.398 56.0538 28.7094C50.8606 32.143 41.1607 34.4516 30.045 34.4516V45.9381C46.6335 45.9381 60.0848 40.7957 60.0848 34.4516H60.0814Z" fill="#2E67F8"/>
<path d="M88.5594 22.3932C91.8137 22.3932 92.8125 21.8239 92.8125 19.512C92.8125 17.2 91.8442 16.5992 88.5335 16.5992H78.6296V22.3898H88.5594V22.3932ZM72.8649 11.8648H89.1287C96.3779 11.8648 98.5467 13.8059 98.5467 18.7714C98.5467 22.108 97.5784 23.9341 94.837 24.7931V24.9069C97.8896 25.3928 98.5727 26.334 98.5727 30.214V34.068H92.8091V31.0718C92.8091 28.1906 92.3232 27.105 88.1299 27.105H78.6296V34.068H72.8649V11.8648Z" fill="white"/>
<path d="M103.584 32.9307C102.04 31.9286 101.611 30.382 101.611 27.6609V27.0589H107.437V27.1424C107.437 28.4872 107.638 29.0023 108.406 29.4059C109.177 29.806 110.975 29.9774 114.946 29.9774C119.514 29.9774 120.859 29.7756 121.573 29.4329C122.344 29.0598 122.543 28.6326 122.543 27.573C122.543 26.5979 122.285 26.0568 121.6 25.7142C120.916 25.3703 119.487 25.314 112.289 25.1426C107.779 25.0277 105.407 24.6275 103.979 23.7404C102.409 22.7687 101.809 21.1635 101.809 18.2721C101.809 15.3796 102.664 13.8331 104.237 12.8873C105.951 11.8548 108.919 11.3982 114.688 11.3982C119.886 11.3982 123.543 11.7713 125.453 13.0023C127.053 14.0348 127.368 15.7494 127.368 18.1572V18.5573H121.543V18.5314C121.543 17.4988 121.429 16.8698 120.658 16.4967C119.829 16.0966 118.26 15.9511 114.605 15.9511C110.576 15.9511 109.207 16.0966 108.494 16.4392C107.722 16.8124 107.55 17.3839 107.55 18.1842C107.55 19.2168 107.923 19.644 108.436 19.9032C109.007 20.1884 109.949 20.3023 115.432 20.4173C121.657 20.5311 124.458 20.8479 126.142 21.877C127.741 22.8487 128.254 24.6545 128.254 27.3746C128.254 30.2975 127.514 31.9286 125.94 32.9307C124.37 33.9328 121.657 34.5348 114.775 34.5348C107.893 34.5348 105.38 34.1042 103.58 32.9307H103.584Z" fill="white"/>
<path d="M146.79 23.2796C150.278 23.2796 151.375 22.6224 151.375 19.9418C151.375 17.2613 150.278 16.6041 146.79 16.6041H137.676V23.2796H146.79ZM131.993 11.8652H147.044C154.751 11.8652 157 13.8052 157 19.9418C157 26.0785 154.751 28.0185 147.044 28.0185H137.679V34.0673H131.998V11.8652H131.993Z" fill="white"/>
</svg>
