<svg width="210" height="62" viewBox="0 0 210 62" fill="none" xmlns="http://www.w3.org/2000/svg">
<path d="M40.1821 0.546301C17.9892 0.546301 0 7.42626 0 15.9105C0 18.7104 1.96613 21.3324 5.38726 23.5911C12.3336 18.9984 25.3079 15.9105 40.1776 15.9105V0.546301H40.1821Z" fill="white"/>
<path d="M74.9719 38.9557C78.3931 36.6971 80.3592 34.0751 80.3592 31.2752C80.3592 22.7909 62.3715 15.911 40.1771 15.911V31.2752C55.0468 31.2752 68.0211 34.3676 74.9674 38.9557H74.9719Z" fill="white"/>
<path d="M5.38726 23.591C1.96613 25.8542 0 28.4717 0 31.2716C0 39.7558 17.9892 46.6358 40.1821 46.6358V31.2716C25.3125 31.2716 12.3381 28.1792 5.39179 23.591H5.38726Z" fill="white"/>
<path d="M80.3637 46.6358C80.3637 43.8359 78.3975 41.2139 74.9764 38.9552C68.0301 43.5479 55.0557 46.6358 40.1876 46.6358V62C62.376 62 80.3682 55.1216 80.3682 46.6358H80.3637Z" fill="white"/>
<path d="M118.455 30.5067C122.808 30.5067 124.144 29.7453 124.144 26.6528C124.144 23.5604 122.849 22.7568 118.421 22.7568H105.173V30.5022H118.455V30.5067ZM97.4625 16.4241H119.217C128.913 16.4241 131.814 19.0205 131.814 25.6622C131.814 30.1252 130.519 32.5678 126.852 33.7167V33.869C130.935 34.5189 131.849 35.7779 131.849 40.9676V46.1227H124.14V42.115C124.14 38.2612 123.49 36.8092 117.881 36.8092H105.173V46.1227H97.4625V16.4241Z" fill="white"/>
<path d="M138.551 44.6016C136.487 43.2612 135.913 41.1926 135.913 37.5528V36.7477H143.705V36.8592C143.705 38.658 143.975 39.3471 145.002 39.8868C146.033 40.4221 148.438 40.6513 153.75 40.6513C159.859 40.6513 161.658 40.3814 162.614 39.923C163.645 39.424 163.911 38.8525 163.911 37.4352C163.911 36.131 163.565 35.4073 162.65 34.9489C161.735 34.489 159.823 34.4136 150.196 34.1844C144.163 34.0307 140.991 33.4954 139.081 32.3088C136.98 31.0091 136.178 28.862 136.178 24.9946C136.178 21.1256 137.321 19.057 139.426 17.792C141.718 16.4108 145.688 15.8002 153.404 15.8002C160.357 15.8002 165.248 16.2993 167.804 17.9458C169.943 19.3269 170.365 21.6202 170.365 24.8408V25.3761H162.573V25.3414C162.573 23.9603 162.421 23.1189 161.39 22.6198C160.281 22.0846 158.182 21.8901 153.293 21.8901C147.904 21.8901 146.074 22.0846 145.119 22.543C144.086 23.042 143.857 23.8065 143.857 24.877C143.857 26.2581 144.356 26.8295 145.042 27.1763C145.805 27.5578 147.066 27.7101 154.399 27.8639C162.725 28.0162 166.472 28.4398 168.725 29.8164C170.864 31.1161 171.55 33.5316 171.55 37.1698C171.55 41.0795 170.56 43.2612 168.455 44.6016C166.355 45.942 162.725 46.7472 153.52 46.7472C144.316 46.7472 140.955 46.1712 138.547 44.6016H138.551Z" fill="white"/>
<path d="M196.343 31.6925C201.009 31.6925 202.476 30.8134 202.476 27.228C202.476 23.6425 201.009 22.7634 196.343 22.7634H184.152V31.6925H196.343ZM176.552 16.4248H196.683C206.992 16.4248 210 19.0197 210 27.228C210 35.4363 206.992 38.0311 196.683 38.0311H184.157V46.1218H176.558V16.4248H176.552Z" fill="white"/>
</svg>
