<svg width="46" height="46" viewBox="0 0 46 46" fill="none" xmlns="http://www.w3.org/2000/svg">
<g filter="url(#filter0_b_108_6281)">
<path d="M0 23C0 10.2975 10.2975 0 23 0C35.7025 0 46 10.2975 46 23C46 35.7025 35.7025 46 23 46C10.2975 46 0 35.7025 0 23Z" fill="#F7F7FE"/>
<mask id="mask0_108_6281" style="mask-type:alpha" maskUnits="userSpaceOnUse" x="13" y="13" width="20" height="20">
<rect x="13.4" y="13.4001" width="19.1999" height="19.1999" fill="#D9D9D9"/>
</mask>
<g mask="url(#mask0_108_6281)">
<path d="M21.4 27.8001V26.2001H26.2V27.8001H21.4ZM18.24 27.8001L13.6801 23.2442L14.82 22.1002L18.24 25.5201L25.5774 18.1802L26.72 19.3202L18.24 27.8001ZM24.6 24.6001V23.0002H29.4V24.6001H24.6ZM27.8 21.4002V19.8002H32.6V21.4002H27.8Z" fill="#2E67F8"/>
</g>
</g>
<defs>
<filter id="filter0_b_108_6281" x="-3.06667" y="-3.06667" width="52.1333" height="52.1333" filterUnits="userSpaceOnUse" color-interpolation-filters="sRGB">
<feFlood flood-opacity="0" result="BackgroundImageFix"/>
<feGaussianBlur in="BackgroundImageFix" stdDeviation="1.53333"/>
<feComposite in2="SourceAlpha" operator="in" result="effect1_backgroundBlur_108_6281"/>
<feBlend mode="normal" in="SourceGraphic" in2="effect1_backgroundBlur_108_6281" result="shape"/>
</filter>
</defs>
</svg>
