<svg width="20" height="20" viewBox="0 0 20 20" fill="none" xmlns="http://www.w3.org/2000/svg">
<path d="M6.00056 7.4C5.58635 7.39998 5.17814 7.49891 4.8099 7.68856C4.44167 7.87822 4.12408 8.15311 3.88357 8.49034C3.64307 8.82757 3.48661 9.21738 3.42724 9.6273C3.36787 10.0372 3.40729 10.4554 3.54223 10.847C3.67717 11.2386 3.90372 11.5923 4.20301 11.8787C4.5023 12.165 4.86568 12.3757 5.26287 12.4932C5.66006 12.6107 6.07957 12.6316 6.48647 12.5541C6.89338 12.4767 7.27589 12.3032 7.60215 12.048L7.65655 12.0912L11.4405 14.7408C11.3282 15.367 11.4494 16.0126 11.7811 16.5555C12.1128 17.0984 12.632 17.5008 13.2405 17.6865C13.849 17.8723 14.5044 17.8285 15.0828 17.5635C15.6612 17.2985 16.1223 16.8306 16.3789 16.2484C16.6354 15.6662 16.6696 15.0102 16.475 14.4045C16.2804 13.7988 15.8705 13.2855 15.3228 12.9617C14.7752 12.638 14.1278 12.5262 13.5033 12.6477C12.8788 12.7691 12.3205 13.1154 11.9341 13.6208L8.35095 11.1128C8.51095 10.776 8.60055 10.3984 8.60055 9.99999C8.60055 9.6016 8.51095 9.224 8.35095 8.8872L11.9349 6.37841C12.3213 6.88383 12.8796 7.23004 13.5041 7.3515C14.1286 7.47296 14.776 7.36123 15.3236 7.03747C15.8713 6.71371 16.2812 6.20039 16.4758 5.59469C16.6704 4.98899 16.6362 4.33296 16.3797 3.75079C16.1231 3.16862 15.662 2.70073 15.0836 2.4357C14.5052 2.17066 13.8498 2.12688 13.2413 2.31264C12.6328 2.4984 12.1136 2.90081 11.7819 3.44369C11.4502 3.98656 11.329 4.63221 11.4413 5.25841L7.65655 7.9096L7.60215 7.952C7.14518 7.59381 6.58118 7.39943 6.00056 7.4Z" fill="#2E67F8"/>
</svg>
