<svg width="38" height="38" viewBox="0 0 38 38" fill="none" xmlns="http://www.w3.org/2000/svg">
<g filter="url(#filter0_b_284_7140)">
<path d="M0 19C0 8.50659 8.50659 0 19 0C29.4934 0 38 8.50659 38 19C38 29.4934 29.4934 38 19 38C8.50659 38 0 29.4934 0 19Z" fill="#2E67F8"/>
<mask id="mask0_284_7140" style="mask-type:alpha" maskUnits="userSpaceOnUse" x="11" y="11" width="16" height="16">
<rect x="11.0696" y="11.0696" width="15.8608" height="15.8608" fill="#D9D9D9"/>
</mask>
<g mask="url(#mask0_284_7140)">
<path d="M19 17.0177L16.687 14.7046L19 12.3916L21.313 14.7046L19 17.0177ZM11.7305 24.2872V21.6437C11.7305 21.2692 11.8599 20.9553 12.1187 20.702C12.3776 20.4487 12.6887 20.322 13.0522 20.322H15.2165C15.4368 20.322 15.6461 20.3771 15.8444 20.4872C16.0426 20.5974 16.2023 20.7461 16.3235 20.9333C16.6429 21.3629 17.0367 21.6988 17.5048 21.9411C17.9729 22.1834 18.4713 22.3046 19 22.3046C19.5397 22.3046 20.0436 22.1834 20.5117 21.9411C20.9798 21.6988 21.3681 21.3629 21.6765 20.9333C21.8197 20.7461 21.9877 20.5974 22.1804 20.4872C22.3732 20.3771 22.5742 20.322 22.7835 20.322H24.9478C25.3223 20.322 25.6362 20.4487 25.8895 20.702C26.1429 20.9553 26.2695 21.2692 26.2695 21.6437V24.2872H21.6435V22.7837C21.258 23.0591 20.8422 23.2684 20.3961 23.4116C19.95 23.5547 19.4846 23.6263 19 23.6263C18.5264 23.6263 18.0638 23.552 17.6122 23.4033C17.1606 23.2546 16.742 23.0426 16.3565 22.7672V24.2872H11.7305ZM13.7131 19.6611C13.1623 19.6611 12.6942 19.4684 12.3087 19.0829C11.9232 18.6974 11.7305 18.2293 11.7305 17.6785C11.7305 17.1168 11.9232 16.6459 12.3087 16.2659C12.6942 15.8859 13.1623 15.6959 13.7131 15.6959C14.2748 15.6959 14.7457 15.8859 15.1257 16.2659C15.5057 16.6459 15.6957 17.1168 15.6957 17.6785C15.6957 18.2293 15.5057 18.6974 15.1257 19.0829C14.7457 19.4684 14.2748 19.6611 13.7131 19.6611ZM24.2869 19.6611C23.7362 19.6611 23.2681 19.4684 22.8826 19.0829C22.4971 18.6974 22.3043 18.2293 22.3043 17.6785C22.3043 17.1168 22.4971 16.6459 22.8826 16.2659C23.2681 15.8859 23.7362 15.6959 24.2869 15.6959C24.8487 15.6959 25.3195 15.8859 25.6995 16.2659C26.0795 16.6459 26.2695 17.1168 26.2695 17.6785C26.2695 18.2293 26.0795 18.6974 25.6995 19.0829C25.3195 19.4684 24.8487 19.6611 24.2869 19.6611Z" fill="white"/>
</g>
</g>
<defs>
<filter id="filter0_b_284_7140" x="-3.14737" y="-3.14737" width="44.2947" height="44.2947" filterUnits="userSpaceOnUse" color-interpolation-filters="sRGB">
<feFlood flood-opacity="0" result="BackgroundImageFix"/>
<feGaussianBlur in="BackgroundImageFix" stdDeviation="1.57368"/>
<feComposite in2="SourceAlpha" operator="in" result="effect1_backgroundBlur_284_7140"/>
<feBlend mode="normal" in="SourceGraphic" in2="effect1_backgroundBlur_284_7140" result="shape"/>
</filter>
</defs>
</svg>
