<svg width="20" height="20" viewBox="0 0 20 20" fill="none" xmlns="http://www.w3.org/2000/svg">
<rect width="20" height="20" rx="4.70588" fill="url(#paint0_linear_109_6335)"/>
<mask id="mask0_109_6335" style="mask-type:alpha" maskUnits="userSpaceOnUse" x="5" y="5" width="10" height="10">
<rect x="5" y="5" width="10" height="10" fill="#D9D9D9"/>
</mask>
<g mask="url(#mask0_109_6335)">
<path d="M13.0548 11.1876L12.4515 10.5834C12.5347 10.507 12.5988 10.4185 12.6439 10.3178C12.689 10.2171 12.7115 10.1112 12.7115 10.0001C12.7115 9.88897 12.689 9.78307 12.6439 9.68237C12.5988 9.58168 12.5347 9.49314 12.4515 9.41675L13.0548 8.81258C13.2143 8.9723 13.3356 9.1546 13.4189 9.35946C13.5021 9.56432 13.5437 9.77786 13.5437 10.0001C13.5437 10.2223 13.5021 10.4358 13.4189 10.6407C13.3356 10.8456 13.2143 11.0279 13.0548 11.1876ZM14.0742 12.2084L13.4917 11.6251C13.7067 11.4098 13.8731 11.1633 13.991 10.8855C14.1089 10.6077 14.1678 10.3126 14.1678 10.0001C14.1678 9.68758 14.1089 9.39244 13.991 9.11466C13.8731 8.83689 13.7067 8.59036 13.4917 8.37508L14.0742 7.79175C14.3724 8.08341 14.6012 8.42022 14.7607 8.80216C14.9202 9.18411 15 9.58341 15 10.0001C15 10.4167 14.9202 10.8161 14.7607 11.198C14.6012 11.5799 14.3724 11.9167 14.0742 12.2084ZM8.33218 14.5834C8.10333 14.5834 7.90742 14.5018 7.74445 14.3386C7.58148 14.1754 7.5 13.9792 7.5 13.7501V6.25008C7.5 6.02091 7.58148 5.82473 7.74445 5.66154C7.90742 5.49835 8.10333 5.41675 8.33218 5.41675H12.4931C12.7219 5.41675 12.9178 5.49835 13.0808 5.66154C13.2438 5.82473 13.3252 6.02091 13.3252 6.25008V7.91675H12.4931V7.50008H8.33218V12.5001H12.4931V12.0834H13.3252V13.7501C13.3252 13.9792 13.2438 14.1754 13.0808 14.3386C12.9178 14.5018 12.7219 14.5834 12.4931 14.5834H8.33218Z" fill="#2E67F8"/>
</g>
<defs>
<linearGradient id="paint0_linear_109_6335" x1="10" y1="0" x2="10" y2="20" gradientUnits="userSpaceOnUse">
<stop offset="0.11" stop-color="#F8FBFF"/>
<stop offset="0.49" stop-color="#E2EDFF"/>
<stop offset="1" stop-color="#BCD3FB"/>
</linearGradient>
</defs>
</svg>
