<svg width="20" height="20" viewBox="0 0 20 20" fill="none" xmlns="http://www.w3.org/2000/svg">
<rect width="20" height="20" rx="4.70588" fill="url(#paint0_linear_109_6355)"/>
<mask id="mask0_109_6355" style="mask-type:alpha" maskUnits="userSpaceOnUse" x="5" y="5" width="10" height="10">
<rect x="5" y="5" width="10" height="10" fill="#D9D9D9"/>
</mask>
<g mask="url(#mask0_109_6355)">
<path d="M6.66671 13.3332C6.43754 13.3332 6.24136 13.2516 6.07817 13.0884C5.91497 12.9252 5.83337 12.729 5.83337 12.4998V7.49984C5.83337 7.27067 5.91497 7.07449 6.07817 6.9113C6.24136 6.7481 6.43754 6.6665 6.66671 6.6665H13.3334C13.5625 6.6665 13.7587 6.7481 13.9219 6.9113C14.0851 7.07449 14.1667 7.27067 14.1667 7.49984V12.4998C14.1667 12.729 14.0851 12.9252 13.9219 13.0884C13.7587 13.2516 13.5625 13.3332 13.3334 13.3332H6.66671ZM10 10.4165L13.3334 8.33317V7.49984L10 9.58317L6.66671 7.49984V8.33317L10 10.4165Z" fill="#2E67F8"/>
</g>
<defs>
<linearGradient id="paint0_linear_109_6355" x1="10" y1="0" x2="10" y2="20" gradientUnits="userSpaceOnUse">
<stop offset="0.11" stop-color="#F8FBFF"/>
<stop offset="0.49" stop-color="#E2EDFF"/>
<stop offset="1" stop-color="#BCD3FB"/>
</linearGradient>
</defs>
</svg>
