<svg width="38" height="38" viewBox="0 0 38 38" fill="none" xmlns="http://www.w3.org/2000/svg">
<g filter="url(#filter0_b_108_6290)">
<path d="M0 19C0 8.50659 8.50659 0 19 0C29.4934 0 38 8.50659 38 19C38 29.4934 29.4934 38 19 38C8.50659 38 0 29.4934 0 19Z" fill="#2E67F8"/>
<mask id="mask0_108_6290" style="mask-type:alpha" maskUnits="userSpaceOnUse" x="11" y="11" width="16" height="16">
<rect x="11.0696" y="11.0696" width="15.8608" height="15.8608" fill="#D9D9D9"/>
</mask>
<g mask="url(#mask0_108_6290)">
<path d="M14.374 24.9478C14.0105 24.9478 13.6993 24.8184 13.4405 24.5596C13.1817 24.3007 13.0522 23.9896 13.0522 23.6261V14.374C13.0522 14.0105 13.1817 13.6993 13.4405 13.4405C13.6993 13.1817 14.0105 13.0522 14.374 13.0522H23.6261C23.9896 13.0522 24.3007 13.1817 24.5596 13.4405C24.8184 13.6993 24.9478 14.0105 24.9478 14.374V19.4627L22.5357 21.8748L21.1313 20.4705L18.3227 23.2626L20.0079 24.9478H14.374ZM18.3392 19.6609H22.3044V18.3392H18.3392V19.6609ZM18.3392 17.0174H22.3044V15.6957H18.3392V17.0174ZM22.5357 25.6087L20.1896 23.2626L21.1313 22.3374L22.5357 23.7418L25.3444 20.9331L26.2696 21.8748L22.5357 25.6087ZM16.3566 19.6609C16.5438 19.6609 16.7008 19.5976 16.8274 19.4709C16.9541 19.3442 17.0174 19.1873 17.0174 19C17.0174 18.8128 16.9541 18.6558 16.8274 18.5292C16.7008 18.4025 16.5438 18.3392 16.3566 18.3392C16.1693 18.3392 16.0124 18.4025 15.8857 18.5292C15.759 18.6558 15.6957 18.8128 15.6957 19C15.6957 19.1873 15.759 19.3442 15.8857 19.4709C16.0124 19.5976 16.1693 19.6609 16.3566 19.6609ZM16.3566 17.0174C16.5438 17.0174 16.7008 16.9541 16.8274 16.8274C16.9541 16.7008 17.0174 16.5438 17.0174 16.3566C17.0174 16.1693 16.9541 16.0124 16.8274 15.8857C16.7008 15.759 16.5438 15.6957 16.3566 15.6957C16.1693 15.6957 16.0124 15.759 15.8857 15.8857C15.759 16.0124 15.6957 16.1693 15.6957 16.3566C15.6957 16.5438 15.759 16.7008 15.8857 16.8274C16.0124 16.9541 16.1693 17.0174 16.3566 17.0174Z" fill="white"/>
</g>
</g>
<defs>
<filter id="filter0_b_108_6290" x="-3.14737" y="-3.14737" width="44.2947" height="44.2947" filterUnits="userSpaceOnUse" color-interpolation-filters="sRGB">
<feFlood flood-opacity="0" result="BackgroundImageFix"/>
<feGaussianBlur in="BackgroundImageFix" stdDeviation="1.57368"/>
<feComposite in2="SourceAlpha" operator="in" result="effect1_backgroundBlur_108_6290"/>
<feBlend mode="normal" in="SourceGraphic" in2="effect1_backgroundBlur_108_6290" result="shape"/>
</filter>
</defs>
</svg>
